<svg id="Calque_1" data-name="Calque 1" xmlns="http://www.w3.org/2000/svg" viewBox="0 0 600.14 599.8"><title>add</title><path d="M976,1165c7.73.94,15.48,1.74,23.19,2.83,115,16.22,208.35,93.85,244.74,203.51,54.79,165.09-44.1,343.55-213.21,384.77a299.9,299.9,0,0,1-353.64-188.67c-53.92-147,16.26-312.66,159.38-376.23a297.74,297.74,0,0,1,102.15-25.43A39.8,39.8,0,0,0,943,1165Zm-17,40.74c-138.84-1.82-256.79,114-259.16,253.49-2.42,142.46,108.76,260.26,250.89,264.67,147.61,4.58,264.3-112.2,267.51-252.92C1221.54,1325.47,1104.39,1205.16,959,1205.74Z" transform="translate(-658.95 -1165)"/><path d="M983.94,1443.21h75.24c2.17,0,4.34-.1,6.5.08,11.31,1,19.61,10.07,19.25,21a20.35,20.35,0,0,1-20.56,19.65c-24.83.12-49.66,0-74.49,0h-5.94c0,2.21,0,4,0,5.76,0,25.83.05,51.66,0,77.49a20.37,20.37,0,0,1-13.68,19.57c-8.18,2.81-17.54.6-22.31-6.65a28.36,28.36,0,0,1-4.57-14.31c-.44-25.32-.21-50.65-.21-76,0-1.79,0-3.58,0-5.88h-5.85c-26.5,0-53,0-79.49,0a20.37,20.37,0,0,1-19.6-13.6c-2.83-8.18-.67-17.57,6.6-22.31a29.47,29.47,0,0,1,14.8-4.61c25.65-.45,51.32-.21,77-.21h6.56c0-2.18,0-3.94,0-5.71,0-25.33-.07-50.66,0-76,.06-15.17,13.43-25.12,27.11-20.38,8.31,2.88,13.62,10.54,13.64,20.09.06,25.33,0,50.66,0,76C983.94,1439,983.94,1440.8,983.94,1443.21Z" transform="translate(-658.95 -1165)"/></svg>