<svg id="Calque_1" data-name="Calque 1" xmlns="http://www.w3.org/2000/svg" viewBox="0 0 523.45 522.89"><title>search</title><path d="M1262.76,1661.68l-50.67,50.56c-1.14-1.09-2.57-2.38-3.93-3.75q-92.63-92.63-185.21-185.31c-2.7-2.71-4.46-3.63-8.24-1.23-74.18,47-172.36,32.59-230.18-33.57-31.09-35.57-46.47-77-45.15-124.15,2.4-85.64,66.1-158.31,150.39-172.4,97-16.21,189.62,48.83,206.86,145.88,8,45.26-.18,87.82-24.65,126.93-2.3,3.68-1.71,5.46,1.1,8.27q92.75,92.51,185.34,185.18C1259.72,1659.36,1261.24,1660.42,1262.76,1661.68Zm-343.7-402c-60.19.15-109.36,49.36-109.43,109.53a109.67,109.67,0,1,0,109.43-109.53Z" transform="translate(-739.31 -1189.35)"/></svg>